#!OML:ASF E:\Style4\Style4.ASF
:FULLY-SPECIFIED
:DEGREES
839
root 0.12989 17.6184 -3.28032 1.44771 -0.332486 1.47371
lowerback 11.3208 2.75834 -1.5709
upperback 7.35841 3.50351 -0.293593
thorax 1.26931 1.70921 0.225988
lowerneck 6.49443 -4.96877 -6.42053
upperneck -2.46593 -6.9259 5.81993
head -1.46957 -3.53494 3.21552
rclavicle -3.42904e-014 3.97569e-015
rhumerus -319.776 -13.5713 -413.621
rradius 69.7624
rwrist -45.956
rhand -22.2817 20.429
rfingers 7.12502
rthumb 4.13674 -9.51057
lclavicle -3.42904e-014 3.97569e-015
lhumerus 38.2651 7.44474 50.0914
lradius 82.2488
lwrist 51.2094
lhand -12.2032 30.8296
lfingers 7.12502
lthumb 13.8612 60.3477
rfemur -22.2662 -0.630633 15.6312
rtibia 36.7848
rfoot -15.2719 -9.94258
rtoes -11.1405
lfemur -19.914 2.16905 -21.589
ltibia 36.007
lfoot -18.2358 7.57521
ltoes -10.268
840
root 0.132369 17.6009 -3.27558 1.41783 -0.418306 1.43918
lowerback 11.4269 2.77845 -1.56826
upperback 7.39276 3.5277 -0.290774
thorax 1.24794 1.7212 0.220695
lowerneck 6.54122 -4.9436 -6.48406
upperneck -2.45187 -6.89927 5.84914
head -1.47235 -3.52229 3.23833
rclavicle -3.10104e-014 6.55989e-015
rhumerus -321.484 -12.8623 -412.389
rradius 70.6162
rwrist -45.6397
rhand -21.8049 20.5513
rfingers 7.12502
rthumb 4.59712 -9.3788
lclavicle -3.10104e-014 6.55989e-015
lhumerus 36.8709 6.63553 49.3839
lradius 83.2671
lwrist 51.0687
lhand -12.0345 30.5677
lfingers 7.12502
lthumb 14.0237 60.0747
rfemur -22.4598 -0.663901 15.6621
rtibia 37.1992
rfoot -15.5432 -9.80236
rtoes -10.9788
lfemur -20.0742 2.26223 -21.562
ltibia 36.4094
lfoot -18.4535 7.51615
ltoes -10.0044
841
root 0.134222 17.583 -3.27213 1.3873 -0.483884 1.57152
lowerback 12.9025 2.67007 -1.46214
upperback 6.54643 3.34296 -0.667672
thorax -0.401178 1.64742 -0.305065
lowerneck 6.57531 -4.8013 -6.23538
upperneck -1.52754 -6.71269 5.8382
head -1.1986 -3.43525 3.15969
rclavicle -3.87133e-014 4.07509e-015
rhumerus -324.127 -11.3293 -411.599
rradius 71.4913
rwrist -45.1259
rhand -21.2468 20.617
rfingers 7.12502
rthumb 5.13603 -9.30077
lclavicle -3.87133e-014 4.07509e-015
lhumerus 34.5698 5.09481 47.7131
lradius 84.3604
lwrist 51.1205
lhand -12.7049 29.9794
lfingers 7.12502
lthumb 13.3776 59.5299
rfemur -22.6624 -0.724169 15.507
rtibia 37.6099
rfoot -15.7829 -9.65655
rtoes -10.5604
lfemur -20.2466 2.34635 -21.7196
ltibia 36.8154
lfoot -18.6266 7.4756
ltoes -10.1718
842
root 0.136285 17.5668 -3.2723 1.40331 -0.539434 1.60612
lowerback 13.1763 2.66665 -1.56993
upperback 6.46665 3.31751 -0.671044
thorax -0.636744 1.63298 -0.260633
lowerneck 6.54205 -4.73733 -6.202
upperneck -1.39456 -6.62926 5.72216
head -1.15981 -3.39134 3.10788
rclavicle -3.00662e-015 5.06901e-015
rhumerus -325.871 -10.362 -410.414
rradius 72.3136
rwrist -44.4801
rhand -20.759 20.6933
rfingers 7.12502
rthumb 5.607 -9.21253
lclavicle -3.00662e-015 5.06901e-015
lhumerus 33.1111 4.11478 46.8215
lradius 85.2558
lwrist 50.929
lhand -12.8698 29.9393
lfingers 7.12502
lthumb 13.2187 59.5002
rfemur -22.9143 -0.790821 15.465
rtibia 38.0046
rfoot -15.9194 -9.5653
rtoes -10.3954
lfemur -20.4919 2.39892 -21.7646
ltibia 37.232
lfoot -18.7506 7.39143
ltoes -9.87007
843
root 0.137443 17.5503 -3.27122 1.37002 -0.62093 1.47697
lowerback 12.3957 2.75995 -1.80888
upperback 7.12175 3.44944 -0.314211
thorax 0.432024 1.67996 0.282804
lowerneck 6.47527 -4.74938 -6.43553
upperneck -2.0292 -6.65001 5.59575
head -1.34923 -3.39345 3.12402
rclavicle -2.08724e-014 1.70955e-014
rhumerus -326.733 -9.91304 -408.825
rradius 73.0509
rwrist -43.7523
rhand -20.3824 20.7796
rfingers 7.12502
rthumb 5.97065 -9.11632
lclavicle -2.08724e-014 1.70955e-014
lhumerus 32.2528 3.74348 46.6569
lradius 86.0506
lwrist 50.3255
lhand -12.1296 30.1604
lfingers 7.12502
lthumb 13.9321 59.6736
rfemur -23.0958 -0.808505 15.6155
rtibia 38.3827
rfoot -16.0352 -9.53421
rtoes -10.6932
lfemur -20.678 2.48616 -21.6236
ltibia 37.6603
lfoot -18.8766 7.32602
ltoes -9.8102
844
root 0.1385 17.5324 -3.26965 1.35031 -0.701899 1.44356
lowerback 11.7497 2.81457 -1.71576
upperback 7.7082 3.55623 -0.304948
thorax 1.39874 1.72808 0.278746
lowerneck 6.36238 -4.80199 -6.50457
upperneck -2.56595 -6.70332 5.75165
head -1.49337 -3.41927 3.20183
rclavicle 3.89618e-014 -7.35503e-015
rhumerus -327.722 -9.58957 -407.603
rradius 73.7126
rwrist -42.8399
rhand -20.0838 20.8556
rfingers 7.12502
rthumb 6.25891 -9.03193
lclavicle 3.89618e-014 -7.35503e-015
lhumerus 31.4569 3.12255 45.9721
lradius 86.8971
lwrist 49.5441
lhand -11.5112 29.8882
lfingers 7.12502
lthumb 14.528 59.3595
rfemur -23.2845 -0.823388 15.6498
rtibia 38.7274
rfoot -16.1907 -9.44111
rtoes -10.6701
lfemur -20.8884 2.53298 -21.589
ltibia 38.0981
lfoot -19.0685 7.31057
ltoes -9.69624
845
root 0.140517 17.5156 -3.26924 1.32932 -0.735108 1.44397
lowerback 11.8841 2.79478 -1.74552
upperback 7.78411 3.52446 -0.307364
thorax 1.40563 1.7107 0.291788
lowerneck 6.28273 -4.76345 -6.54282
upperneck -2.57749 -6.64972 5.77177
head -1.48473 -3.3917 3.21189
rclavicle -3.17559e-014 1.35174e-014
rhumerus -329.073 -8.63691 -406.481
rradius 74.3869
rwrist -41.757
rhand -20.0605 20.8967
rfingers 7.12502
rthumb 6.28138 -8.99014
lclavicle -3.17559e-014 1.35174e-014
lhumerus 30.1106 2.10531 44.9871
lradius 87.6215
lwrist 48.7185
lhand -11.3671 29.4612
lfingers 7.12502
lthumb 14.6668 58.9225
rfemur -23.4616 -0.847781 15.6416
rtibia 39.0716
rfoot -16.357 -9.37684
rtoes -10.3552
lfemur -21.1031 2.53325 -21.5956
ltibia 38.5104
lfoot -19.2177 7.36073
ltoes -9.81162
846
root 0.14131 17.5013 -3.26522 1.27039 -0.764976 1.37847
lowerback 12.0586 2.81257 -1.71218
upperback 7.83186 3.54673 -0.265672
thorax 1.36119 1.72207 0.306661
lowerneck 6.24678 -4.74976 -6.60303
upperneck -2.52259 -6.63468 5.79279
head -1.45896 -3.38397 3.22676
rclavicle -2.32578e-014 1.82882e-014
rhumerus -330.548 -7.72046 -405.388
rradius 74.9951
rwrist -40.5162
rhand -19.8388 21.0487
rfingers 7.12502
rthumb 6.49544 -8.83167
lclavicle -2.32578e-014 1.82882e-014
lhumerus 28.8477 0.941341 44.0599
lradius 88.2678
lwrist 47.7821
lhand -11.4318 29.0953
lfingers 7.12502
lthumb 14.6045 58.5611
rfemur -23.5816 -0.83799 15.7144
rtibia 39.4358
rfoot -16.5763 -9.3522
rtoes -10.2775
lfemur -21.2339 2.5934 -21.5268
ltibia 38.873
lfoot -19.338 7.3983
ltoes -10.1089
847
root 0.142783 17.4877 -3.26038 1.2778 -0.854099 1.41053
lowerback 12.1002 2.85786 -1.74244
upperback 7.91805 3.60318 -0.265916
thorax 1.4273 1.74834 0.317719
lowerneck 6.15779 -4.73545 -6.70833
upperneck -2.5027 -6.61607 5.88989
head -1.43167 -3.37512 3.27471
rclavicle -1.22253e-014 1.96797e-014
rhumerus -331.981 -6.89115 -404.24
rradius 75.5557
rwrist -39.1927
rhand -19.5911 21.0317
rfingers 7.12502
rthumb 6.73452 -8.8412
lclavicle -1.22253e-014 1.96797e-014
lhumerus 27.6779 -0.128604 43.1969
lradius 88.8349
lwrist 46.4796
lhand -11.2126 28.7715
lfingers 7.12502
lthumb 14.8157 58.2219
rfemur -23.7934 -0.825284 15.6784
rtibia 39.8096
rfoot -16.7654 -9.23847
rtoes -10.0158
lfemur -21.39 2.7337 -21.5712
ltibia 39.1804
lfoot -19.5098 7.36206
ltoes -10.373
848
root 0.145363 17.4714 -3.25659 1.31437 -0.951224 1.57425
lowerback 12.1434 2.86837 -1.90242
upperback 7.98156 3.60103 -0.328482
thorax 1.46636 1.74217 0.342083
lowerneck 6.06756 -4.69722 -6.75737
upperneck -2.50531 -6.56123 5.96494
head -1.41646 -3.34804 3.30496
rclavicle -1.5207e-014 -4.96962e-015
rhumerus -333.273 -6.02497 -403.167
rradius 76.0923
rwrist -37.74
rhand -19.3169 20.91
rfingers 7.12502
rthumb 6.99925 -8.95432
lclavicle -1.5207e-014 -4.96962e-015
lhumerus 26.4766 -1.14441 42.2623
lradius 89.3166
lwrist 44.7494
lhand -10.8275 28.2993
lfingers 7.12502
lthumb 15.1866 57.722
rfemur -24.0507 -0.85653 15.4896
rtibia 40.1673
rfoot -16.8751 -9.145
rtoes -9.86836
lfemur -21.5544 2.80142 -21.7658
ltibia 39.4438
lfoot -19.6721 7.31832
ltoes -10.044
849
root 0.147124 17.4588 -3.25245 1.32216 -0.967385 1.67439
lowerback 12.3745 2.84038 -2.03392
upperback 7.93512 3.54341 -0.356212
thorax 1.28912 1.71056 0.379847
lowerneck 6.06742 -4.62238 -6.78745
upperneck -2.47853 -6.46283 6.00725
head -1.41265 -3.29975 3.32286
rclavicle 2.28602e-015 -7.95139e-016
rhumerus -334.553 -5.01011 -402.134
rradius 76.5348
rwrist -36.1703
rhand -18.8998 21.2309
rfingers 7.12502
rthumb 7.40182 -8.6196
lclavicle 2.28602e-015 -7.95139e-016
lhumerus 25.1753 -2.31251 41.2971
lradius 89.7603
lwrist 43.1957
lhand -10.7928 27.7895
lfingers 7.12502
lthumb 15.2201 57.2096
rfemur -24.2461 -0.898507 15.369
rtibia 40.4993
rfoot -16.9931 -9.11333
rtoes -9.67149
lfemur -21.6791 2.78602 -21.8894
ltibia 39.6759
lfoot -19.7826 7.28876
ltoes -9.76388
850
root 0.148142 17.4504 -3.24556 1.26631 -0.978243 1.67161
lowerback 12.6573 2.83271 -2.01415
upperback 7.8993 3.52563 -0.376774
thorax 1.10288 1.70426 0.334357
lowerneck 6.00742 -4.57263 -6.72817
upperneck -2.37309 -6.39142 5.99168
head -1.37477 -3.26415 3.29999
rclavicle 3.65764e-014 -1.21259e-014
rhumerus -335.874 -4.06624 -401.194
rradius 76.9373
rwrist -34.4406
rhand -18.8299 21.4056
rfingers 7.12502
rthumb 7.46933 -8.44249
lclavicle 3.65764e-014 -1.21259e-014
lhumerus 23.9827 -3.5285 40.4044
lradius 90.143
lwrist 41.7245
lhand -10.8774 27.2376
lfingers 7.12502
lthumb 15.1386 56.6639
rfemur -24.3191 -0.944801 15.3705
rtibia 40.7969
rfoot -17.1347 -9.11007
rtoes -9.91708
lfemur -21.7152 2.83545 -21.8925
ltibia 39.9045
lfoot -19.8772 7.25047
ltoes -9.81188
